<svg xmlns="http://www.w3.org/2000/svg" xml:space="preserve" style="fill-rule:evenodd;clip-rule:evenodd;stroke-linecap:round;stroke-linejoin:round;stroke-miterlimit:1.5" viewBox="0 0 550 920"><path d="M639.991 315.326c-10.092 1.011-20.342.738-28.54-5.533-12.146-9.291-18.733-22.216-27.244-36.255-5.461-9.01-9.763-18.807-13.64-28.603-3.878-9.802-6.47-19.497-9.209-29.677-1.889-7.021-2.569-14.082-4.874-20.978-1.427-4.271-7.008-5.789-7.266-10.715-.271-5.182 1.383-8.265.384-13.458-1.636-8.509-10.604-14.834-6.302-24.214 2.795-6.096 10.446 3.775 11.631 4.71.676.534 2.088 1.864 2.361 1.048 1.309-3.903-1.514-10.522-1.79-14.227-1.28-17.196-1.51-27.364 2.834-44.197 9.153-35.468 46.439-58.102 81.664-57.68l.413-.003c35.102-.242 72.134 22.353 81.251 57.683 4.344 16.833 4.114 27.001 2.834 44.197-.276 3.705-3.099 10.324-1.79 14.227.273.816 1.685-.514 2.361-1.048 1.185-.935 8.836-10.806 11.631-4.71 4.302 9.38-4.666 15.705-6.302 24.214-.999 5.193.655 8.276.384 13.458-.258 4.926-5.49 6.095-6.917 10.366-2.304 6.896-3.334 13.956-5.223 20.978-2.739 10.179-5.156 20.398-9.034 30.2-3.877 9.797-8.354 19.419-13.815 28.429-9.927 16.376-15.779 29.096-27.851 36.558-9.185 5.678-17.699 6.346-27.951 5.23" style="fill:currentColor;stroke:var(--color-grayish-950);stroke-width:1.33px" transform="translate(-1050.86 94.388)scale(2.07115)"/><g class="transition-opacity duration-700 group-hover:opacity-0"><path d="m100.062 476.38-.598 66.436c8.866 36.415 8.092 69.325-.599 99.356 11.58 80.881 42.061 124.958 70.626 142.449-1.637-6.825-2.353-12.727-2.394-17.956 11.053 16.159 22.664 29.53 35.313 37.707 34.213 16.832 53.788 22.685 68.831 25.138 18.882-1.365 48.75-12.799 86.786-31.722 11.663-6.637 18.077-15.9 23.342-25.736l-1.795 12.569c32.003-19.899 56.778-68.883 69.429-141.851-9.123-27.435-10.03-60.348 0-100.552l-.599-65.838-4.788 4.788c-5.462 58.522-15.087 93.108-26.934 114.917-11.083 16.559-20.039 33.119-26.335 49.678l-2.394 13.167-10.175-33.517c-3.602-8.673-10.962-15.467-20.948-20.948-16.352-10.978-36.718-19.548-61.05-25.737-14.165 9.696-28.33 11.053-42.495 0-31.789 9.049-55.997 18.682-67.035 29.328-4.988 1.493-9.976 5.685-14.963 16.758-5.382 10.973-8.585 21.946-10.774 32.919l-3.591-13.766c-3.925-12.964-12.036-27.536-23.941-43.692-17.124-39.503-25.372-79.006-28.131-118.508zm86.188 192.127c.779-10.375 4.009-20.749 9.576-31.124 17.116-8.977 44.133-17.955 77.21-26.933 34.82 8.778 61.144 17.557 78.407 26.335 5.78 10.574 9.782 21.148 10.773 31.722-14.564 11.57-29.128 17.159-43.692 19.153-9.548-4.882-10.024-21.428-8.379-40.7H238.92c.001 19.953-1.584 36.733-9.576 40.7-16.61-4.14-31.273-10.225-43.094-19.153"/><path d="M130.44 372.038c39.434-14.126 78.162-23.616 111.852 0 9.346 8.306 4.497 12.53-7.354 10.112l-27.274-5.516c-24.211-6.123-50.553-5.853-77.224-4.596"/><path d="M296.759 363.764c9.763 9.132 19.838 11.707 30.419 3.677l31.257-19.919c26.146-15.514 41.623 1.691 55.467 23.903-13.104-12.572-27.128-21.202-45.967-9.193l-22.064 17.16c-24.437 14.242-40.202 6.088-49.112-15.628"/><path d="m32.215 518.9-6.516-.851c-3.865-.41-6.026-3.012-6.962-7.187l.071-9.679c-19.32-44.937-17.675-85.59 1.916-122.578-.653-9.431 3.957-13.599 12.928-13.407 1.639-8.054 5.728-12.1 11.97-12.622l13.085.157c1.451-32.189 8.225-62.774 21.39-89.524-7.19-7.309-8.234-15.437-2.872-24.42 89.576-151.975 310.398-147.658 395.506.479 5.645 8.654 4.154 16.543-1.916 23.941 13.131 28.89 19.472 59.065 19.632 89.21l16.28.33c5.354 2.23 7.807 6.393 8.14 11.97 11.708-.212 16.166 4.893 15.322 13.886 18.48 37.631 20.073 78.973.479 124.972.033 1.627.043 4.592.043 4.592.102 5.572-2.112 9.232-7.055 10.636 0 0-3.825.091-6.065.243-1.742 7.505-4.394 12.936-13.258 13.737l-34.954.479c-6.307-.716-10.206-3.839-11.492-9.576-6.724.413-10.444-3.239-10.055-12.449l-1.437-141.731c1.385-4.984 4.784-6.803 9.098-7.183 1.455-5.851 5.374-8.746 11.013-9.576l11.492-.33c-1.243-29.354-7.033-57.936-19.153-83.943-6.8-.086-12.53-3.813-17.238-11.013-73.738-124.653-250.902-131.037-333.259-.478-3.968 7.164-9.383 11.021-16.28 11.491-13.019 27.215-19.225 55.369-20.11 84.257l12.449.495c5.869 1.345 8.668 4.344 9.097 8.618 5.595.581 9.543 3.858 10.535 11.971l-1.916 139.816c-1.306 6.587-4.444 9.743-9.097 10.055-3.196 5.618-7.639 9.702-16.28 8.619l-33.84-.809c-7.512-.434-10.71-5.47-10.691-12.598"/></g><g fill="var(--color-grayish-500)" class="opacity-0 transition-opacity duration-500 group-hover:opacity-100"><path d="M274.676 654.71c5.808.456 11.62.204 17.43-.598 18.09-1.56 36.182-7.866 54.271-17.58l-14.523-7.644c-14.013-6.323-28.027-8.964-42.04-9.171-5.12.3-10.115.53-15.138.236-5.023.294-10.018.064-15.138-.236-14.013.207-28.027 2.848-42.04 9.17l-14.523 7.645c18.09 9.714 36.18 16.02 54.27 17.58 5.812.802 11.623 1.054 17.431.599M113.064 472.859c.518-1.547.775-4.547.53-5.644-36.274-162.766-16.755-222.245 65.998-273.5-87.337 57.914-79.265 185.314-53.165 279.467 5.342 46.211 15.405 92.936 32.98 128.954 4.011 8.226 8.47 14.651 19.872 19.11 27.124-8.185 64.82-37.216 80.259-42.806l15.138 1.05 15.138-1.05c15.438 5.59 53.135 34.621 80.26 42.806 11.4-4.459 15.86-10.884 19.872-19.11 17.574-36.018 28.209-82.743 33.55-128.954 26.101-94.153 33.565-221.553-53.77-279.467 82.752 51.255 102.268 110.734 65.994 273.5-.244 1.097 1.66 7.385 1.191 5.967l9.5 28.954c-6.287 29.036-12.161 59.016-21.394 88.053-13.119 38.085-31.48 83.944-58.314 114.812-9.792 15.078-20.009 27.24-37.96 36.198-19.51 9.736-33.12 12.17-53.744 10.294-19.052.619-36.226-.067-54.39-9.664-17.951-8.958-29.738-23.007-39.532-38.085-26.834-30.868-43.623-75.47-56.742-113.555-9.233-29.037-15.107-58.073-21.395-87.11z"/><path d="M413.902 372.038c-39.434-14.126-78.162-23.616-111.852 0-9.346 8.306-4.497 12.53 7.354 10.112l27.274-5.516c24.211-6.123 50.553-5.853 77.224-4.596"/><path d="M247.583 363.764c-9.763 9.132-19.838 11.707-30.419 3.677l-31.257-19.919c-26.146-15.514-41.623 1.691-55.467 23.903 13.104-12.572 27.128-21.202 45.967-9.193l22.064 17.16c24.437 14.242 40.202 6.088 49.112-15.628"/></g></svg>