<svg xmlns="http://www.w3.org/2000/svg" xml:space="preserve" style="fill-rule:evenodd;clip-rule:evenodd;stroke-linecap:round;stroke-linejoin:round;stroke-miterlimit:1.5" viewBox="0 0 550 920"><path d="M639.991 315.326c-10.092 1.011-20.342.738-28.54-5.533-12.146-9.291-18.733-22.216-27.244-36.255-5.461-9.01-9.763-18.807-13.64-28.603-3.878-9.802-6.47-19.497-9.209-29.677-1.889-7.021-2.569-14.082-4.874-20.978-1.427-4.271-7.008-5.789-7.266-10.715-.271-5.182 1.383-8.265.384-13.458-1.636-8.509-10.604-14.834-6.302-24.214 2.795-6.096 10.446 3.775 11.631 4.71.676.534 2.088 1.864 2.361 1.048 1.309-3.903-1.514-10.522-1.79-14.227-1.28-17.196-1.51-27.364 2.834-44.197 9.153-35.468 46.439-58.102 81.664-57.68l.413-.003c35.102-.242 72.134 22.353 81.251 57.683 4.344 16.833 4.114 27.001 2.834 44.197-.276 3.705-3.099 10.324-1.79 14.227.273.816 1.685-.514 2.361-1.048 1.185-.935 8.836-10.806 11.631-4.71 4.302 9.38-4.666 15.705-6.302 24.214-.999 5.193.655 8.276.384 13.458-.258 4.926-5.49 6.095-6.917 10.366-2.304 6.896-3.334 13.956-5.223 20.978-2.739 10.179-5.156 20.398-9.034 30.2-3.877 9.797-8.354 19.419-13.815 28.429-9.927 16.376-15.779 29.096-27.851 36.558-9.185 5.678-17.699 6.346-27.951 5.23" style="fill:currentColor;stroke:var(--color-grayish-950);stroke-width:1.33px" transform="translate(-1050.86 94.388)scale(2.07115)"/><path d="M274.676 654.71c5.808.456 11.62.204 17.43-.598 18.09-1.56 36.182-7.866 54.271-17.58l-14.523-7.644c-14.013-6.323-28.027-8.964-42.04-9.171-5.12.3-10.115.53-15.138.236-5.023.294-10.018.064-15.138-.236-14.013.207-28.027 2.848-42.04 9.17l-14.523 7.645c18.09 9.714 36.18 16.02 54.27 17.58 5.812.802 11.623 1.054 17.431.599M113.064 472.859c.518-1.547.775-4.547.53-5.644-36.274-162.766-16.755-222.245 65.998-273.5-87.337 57.914-79.265 185.314-53.165 279.467 5.342 46.211 15.405 92.936 32.98 128.954 4.011 8.226 8.47 14.651 19.872 19.11 27.124-8.185 64.82-37.216 80.259-42.806l15.138 1.05 15.138-1.05c15.438 5.59 53.135 34.621 80.26 42.806 11.4-4.459 15.86-10.884 19.872-19.11 17.574-36.018 28.209-82.743 33.55-128.954 26.101-94.153 33.565-221.553-53.77-279.467 82.752 51.255 102.268 110.734 65.994 273.5-.244 1.097 1.66 7.385 1.191 5.967l9.5 28.954c-6.287 29.036-12.161 59.016-21.394 88.053-13.119 38.085-31.48 83.944-58.314 114.812-9.792 15.078-20.009 27.24-37.96 36.198-19.51 9.736-33.12 12.17-53.744 10.294-19.052.619-36.226-.067-54.39-9.664-17.951-8.958-29.738-23.007-39.532-38.085-26.834-30.868-43.623-75.47-56.742-113.555-9.233-29.037-15.107-58.073-21.395-87.11z"/><g fill="var(--color-grayish-500)" class="opacity-0 transition-opacity duration-500 group-hover:opacity-100"><path d="M274.676 654.71c5.808.456 11.62.204 17.43-.598 18.09-1.56 36.182-7.866 54.271-17.58l-14.523-7.644c-14.013-6.323-28.027-8.964-42.04-9.171-5.12.3-10.115.53-15.138.236-5.023.294-10.018.064-15.138-.236-14.013.207-28.027 2.848-42.04 9.17l-14.523 7.645c18.09 9.714 36.18 16.02 54.27 17.58 5.812.802 11.623 1.054 17.431.599M113.064 472.859c.518-1.547.775-4.547.53-5.644-36.274-162.766-16.755-222.245 65.998-273.5-87.337 57.914-79.265 185.314-53.165 279.467 5.342 46.211 15.405 92.936 32.98 128.954 4.011 8.226 8.47 14.651 19.872 19.11 27.124-8.185 64.82-37.216 80.259-42.806l15.138 1.05 15.138-1.05c15.438 5.59 53.135 34.621 80.26 42.806 11.4-4.459 15.86-10.884 19.872-19.11 17.574-36.018 28.209-82.743 33.55-128.954 26.101-94.153 33.565-221.553-53.77-279.467 82.752 51.255 102.268 110.734 65.994 273.5-.244 1.097 1.66 7.385 1.191 5.967l9.5 28.954c-6.287 29.036-12.161 59.016-21.394 88.053-13.119 38.085-31.48 83.944-58.314 114.812-9.792 15.078-20.009 27.24-37.96 36.198-19.51 9.736-33.12 12.17-53.744 10.294-19.052.619-36.226-.067-54.39-9.664-17.951-8.958-29.738-23.007-39.532-38.085-26.834-30.868-43.623-75.47-56.742-113.555-9.233-29.037-15.107-58.073-21.395-87.11z"/><path d="M413.902 372.038c-39.434-14.126-78.162-23.616-111.852 0-9.346 8.306-4.497 12.53 7.354 10.112l27.274-5.516c24.211-6.123 50.553-5.853 77.224-4.596"/><path d="M247.583 363.764c-9.763 9.132-19.838 11.707-30.419 3.677l-31.257-19.919c-26.146-15.514-41.623 1.691-55.467 23.903 13.104-12.572 27.128-21.202 45.967-9.193l22.064 17.16c24.437 14.242 40.202 6.088 49.112-15.628"/></g></svg>