<svg xmlns="http://www.w3.org/2000/svg" xml:space="preserve" style="fill-rule:evenodd;clip-rule:evenodd;stroke-linecap:round;stroke-linejoin:round;stroke-miterlimit:1.5" viewBox="0 0 550 920"><path d="M639.991 315.326c-10.092 1.011-20.342.738-28.54-5.533-12.146-9.291-18.733-22.216-27.244-36.255-5.461-9.01-9.763-18.807-13.64-28.603-3.878-9.802-6.47-19.497-9.209-29.677-1.889-7.021-2.569-14.082-4.874-20.978-1.427-4.271-7.008-5.789-7.266-10.715-.271-5.182 1.383-8.265.384-13.458-1.636-8.509-10.604-14.834-6.302-24.214 2.795-6.096 10.446 3.775 11.631 4.71.676.534 2.088 1.864 2.361 1.048 1.309-3.903-1.514-10.522-1.79-14.227-1.28-17.196-1.51-27.364 2.834-44.197 9.153-35.468 46.439-58.102 81.664-57.68l.413-.003c35.102-.242 72.134 22.353 81.251 57.683 4.344 16.833 4.114 27.001 2.834 44.197-.276 3.705-3.099 10.324-1.79 14.227.273.816 1.685-.514 2.361-1.048 1.185-.935 8.836-10.806 11.631-4.71 4.302 9.38-4.666 15.705-6.302 24.214-.999 5.193.655 8.276.384 13.458-.258 4.926-5.49 6.095-6.917 10.366-2.304 6.896-3.334 13.956-5.223 20.978-2.739 10.179-5.156 20.398-9.034 30.2-3.877 9.797-8.354 19.419-13.815 28.429-9.927 16.376-15.779 29.096-27.851 36.558-9.185 5.678-17.699 6.346-27.951 5.23" style="fill:currentColor;stroke:var(--color-grayish-950);stroke-width:1.33px" transform="translate(-1050.86 94.388)scale(2.07115)"/><g class="transition-opacity duration-700 group-hover:opacity-0"><path d="m108.355 388.894-.499 20.735c5.767 4.226 10.721 11.429 14.489 22.983 3.201 11.835 6.708 23.059 11.242 32.227 4.6 10.831 10.056 14.817 15.989 14.989l63.454 3.997c12.387-.697 21.173-6.796 28.229-15.489l22.484-37.723c7.918-11.992 15.482-11.574 22.734-.249l18.486 33.226c8.679 13.278 19.968 20.031 33.976 19.985l57.958-2.748c11.729-1.692 16.59-7.798 18.986-15.489 5.079-12.328 9.828-25.644 14.24-39.971 2.235-6.506 6.175-11.648 11.742-15.489l-.75-20.984c-67.417-6.85-111.623-2.728-142.397 7.744-18.432 8.333-34.113 8.071-47.216-.25-32.712-11.834-80.456-14.314-143.147-7.494m81.442 3.497c48.704 1.736 72.375 13.836 62.704 38.472-4.576 12.39-10.746 23.584-17.987 33.976-9.744 10.745-25.563 13.82-48.465 11.991-28.958-.098-41.324-6.481-45.966-20.735l-8.244-26.481c-7.335-29.152 13.329-40.714 57.958-37.223m169.557-.25c-48.704 1.736-72.375 13.836-62.705 38.472 4.577 12.39 10.747 23.585 17.987 33.976 9.745 10.745 25.564 13.82 48.465 11.991 28.959-.097 41.325-6.481 45.967-20.735l8.244-26.481c7.335-29.151-13.33-40.714-57.958-37.223"/><path d="m98.379 421.83-5.387-69.429c-15.063-70.551-4.888-122.174 31.123-154.42 4.39 17.949 8.779 29.934 13.168 38.306-19.013 14.27-26.674 46.38-23.343 95.764-12.177 20.27-10.369 57.735-6.583 98.757z"/><path d="m450.563 421.83 5.387-69.429c15.063-70.551 4.888-122.174-31.123-154.42-4.39 17.949-8.779 29.934-13.168 38.306 19.013 14.27 26.674 46.38 23.343 95.764 12.177 20.27 10.369 57.735 6.583 98.757z"/><path d="M147.458 228.506c-15.75-32.788-13.378-58.986 5.985-79.005-2.838 13.101-2.31 21.714-.358 28.43 3.696-31.267 14.817-54.024 39.262-66.138-13.61 44.713-6.811 66.295 3.591 83.794-9.978-35.555-6.581-67.591 13.767-95.166l29.327-10.773c-20.565 53.342-11.226 93.127 6.584 130.479-14.965-39.933-17.765-83.759 7.182-136.464l44.89.598c21.088 45.089 21.806 90.178 7.781 135.267 17.477-42.237 22.626-85.648 6.584-131.077l29.327 13.168c17.32 23.49 22.582 54.517 14.365 93.968 8.411-18.934 11.545-44.104 2.394-83.794 20.111 12.804 36.371 30.86 38.904 67.634 2.974-9.432 3.411-19.497 0-30.525 18.132 19.505 21.97 45.136 6.584 79.005-17.786.688-37.079 5.897-58.057 16.161-42.229 21.887-85.656 26.994-131.077 4.189-24.683-12.816-47.141-19.703-67.035-19.751M233.047 80.67c-10.872-23.78-7.084-41.859 10.774-54.466-6.427 15.109-7.141 26.789 2.394 32.321 1.611-71.266 79.389-78.744 98.756-8.978-19.043-24.668-48.589-23.614-52.67 10.773 27.638-27.972 53.608-8.999 51.473 21.547-7.418-10.646-16.72-14.699-30.524-2.992-22.908-7.056-49.315-7.111-80.203 1.795"/></g><g fill="var(--color-grayish-500)" class="opacity-0 transition-opacity duration-500 group-hover:opacity-100"><path d="M274.676 654.71c5.808.456 11.62.204 17.43-.598 18.09-1.56 36.182-7.866 54.271-17.58l-14.523-7.644c-14.013-6.323-28.027-8.964-42.04-9.171-5.12.3-10.115.53-15.138.236-5.023.294-10.018.064-15.138-.236-14.013.207-28.027 2.848-42.04 9.17l-14.523 7.645c18.09 9.714 36.18 16.02 54.27 17.58 5.812.802 11.623 1.054 17.431.599M113.064 472.859c.518-1.547.775-4.547.53-5.644-36.274-162.766-16.755-222.245 65.998-273.5-87.337 57.914-79.265 185.314-53.165 279.467 5.342 46.211 15.405 92.936 32.98 128.954 4.011 8.226 8.47 14.651 19.872 19.11 27.124-8.185 64.82-37.216 80.259-42.806l15.138 1.05 15.138-1.05c15.438 5.59 53.135 34.621 80.26 42.806 11.4-4.459 15.86-10.884 19.872-19.11 17.574-36.018 28.209-82.743 33.55-128.954 26.101-94.153 33.565-221.553-53.77-279.467 82.752 51.255 102.268 110.734 65.994 273.5-.244 1.097 1.66 7.385 1.191 5.967l9.5 28.954c-6.287 29.036-12.161 59.016-21.394 88.053-13.119 38.085-31.48 83.944-58.314 114.812-9.792 15.078-20.009 27.24-37.96 36.198-19.51 9.736-33.12 12.17-53.744 10.294-19.052.619-36.226-.067-54.39-9.664-17.951-8.958-29.738-23.007-39.532-38.085-26.834-30.868-43.623-75.47-56.742-113.555-9.233-29.037-15.107-58.073-21.395-87.11z"/><path d="M413.902 372.038c-39.434-14.126-78.162-23.616-111.852 0-9.346 8.306-4.497 12.53 7.354 10.112l27.274-5.516c24.211-6.123 50.553-5.853 77.224-4.596"/><path d="M247.583 363.764c-9.763 9.132-19.838 11.707-30.419 3.677l-31.257-19.919c-26.146-15.514-41.623 1.691-55.467 23.903 13.104-12.572 27.128-21.202 45.967-9.193l22.064 17.16c24.437 14.242 40.202 6.088 49.112-15.628"/></g></svg>