<svg xmlns="http://www.w3.org/2000/svg" xml:space="preserve" style="fill-rule:evenodd;clip-rule:evenodd;stroke-linecap:round;stroke-linejoin:round;stroke-miterlimit:1.5" viewBox="0 0 550 920"><path d="M639.991 315.326c-10.092 1.011-20.342.738-28.54-5.533-12.146-9.291-18.733-22.216-27.244-36.255-5.461-9.01-9.763-18.807-13.64-28.603-3.878-9.802-6.47-19.497-9.209-29.677-1.889-7.021-2.569-14.082-4.874-20.978-1.427-4.271-7.008-5.789-7.266-10.715-.271-5.182 1.383-8.265.384-13.458-1.636-8.509-10.604-14.834-6.302-24.214 2.795-6.096 10.446 3.775 11.631 4.71.676.534 2.088 1.864 2.361 1.048 1.309-3.903-1.514-10.522-1.79-14.227-1.28-17.196-1.51-27.364 2.834-44.197 9.153-35.468 46.439-58.102 81.664-57.68l.413-.003c35.102-.242 72.134 22.353 81.251 57.683 4.344 16.833 4.114 27.001 2.834 44.197-.276 3.705-3.099 10.324-1.79 14.227.273.816 1.685-.514 2.361-1.048 1.185-.935 8.836-10.806 11.631-4.71 4.302 9.38-4.666 15.705-6.302 24.214-.999 5.193.655 8.276.384 13.458-.258 4.926-5.49 6.095-6.917 10.366-2.304 6.896-3.334 13.956-5.223 20.978-2.739 10.179-5.156 20.398-9.034 30.2-3.877 9.797-8.354 19.419-13.815 28.429-9.927 16.376-15.779 29.096-27.851 36.558-9.185 5.678-17.699 6.346-27.951 5.23" style="fill:currentColor;stroke:var(--color-grayish-950);stroke-width:1.33px" transform="translate(-1050.86 94.388)scale(2.07115)"/><g class="transition-opacity duration-700 group-hover:opacity-0"><path d="M191.18 631.147c19.058-7.546 37.803-15.45 55.764-24.251a24.3 24.3 0 0 0 3.702-2.25c17.479-12.955 27.47 3.7 13.013 12.177a24.2 24.2 0 0 1-8.914 3.091c-21.298 2.973-42.425 7.145-63.565 11.233"/><path d="M358.929 631.147c-19.058-7.546-37.803-15.45-55.764-24.251a24.3 24.3 0 0 1-3.702-2.25c-17.479-12.955-27.47 3.7-13.013 12.177a24.2 24.2 0 0 0 8.914 3.091c21.298 2.973 42.425 7.145 63.565 11.233"/><path d="M274.759 672.504c5.595-7.586 11.843-13.879 18.637-18.38-13.767 1.492-20.445 1.612-33.482.129 5.841 5.912 10.718 11.31 14.845 18.251"/><path d="M109.163 387.038h117.599c15.154-.359 25.321 2.274 30.261 8.044h35.625c4.48-5.886 13.896-7.658 24.515-8.427l122.961.766.383 15.705c-3.192 3.352-6.384 5.459-9.576 5.746-5.192 3.618-7.194 8.512-7.278 14.173.765 48.35-26.929 63.261-67.035 63.587-44.115 1.014-68.248-24.507-70.482-76.611l-22.218.383c-5.591 54.569-31.692 78.096-75.079 75.462-45.808-1.226-63.364-23.799-63.204-59.757.092-9.201-3.029-14.548-8.044-17.62-3.312-.152-6.137-1.764-8.428-4.98zm25.665 17.237c1.219-5.196 6.939-7.872 15.322-8.81l65.12-.766c23.49 2.608 35.118 10.16 34.092 22.983.285 49.861-29.038 57.924-63.587 58.608-39.32-1.668-55.551-26.423-50.947-72.015m279.623 0c-1.219-5.196-6.939-7.872-15.322-8.81l-65.12-.766c-23.49 2.608-35.117 10.16-34.092 22.983-.284 49.861 29.039 57.924 63.588 58.608 39.319-1.668 55.551-26.423 50.946-72.015"/><path d="M99.464 438.312c3.335-17.821 1.167-40.248-6.734-70.327-10.185-57.59-7.215-113.832 22.445-167.335 12.635-14.574 27.945-21.701 43.645-20.949 13.138-12.8 28.161-24.658 45.386-35.415 36.837-17.319 67.593-15.258 97.26-9.726 36.659 12.189 70.27 27.046 98.757 46.386 20.066 15.462 32.06 30.924 41.897 46.385l17.955 30.675c7.06 33.544 9.766 66.508 1.497 98.009l-15.712 51.622c-.995 8.491-1.047 21.221 0 38.905-4.36-30.482-13.904-69.314-36.659-129.432-14.424-7.126-43.234-11.98-77.078-16.04 15.235 8.079 31.845 15.241 50.144 21.277-76.938-4.439-224.294-19.004-248.388-68.082l5.985 67.334c-.15 21.537-5.347 38.531-15.711 50.875-15.596 17.413-22.375 40.252-24.689 65.838"/></g><g fill="var(--color-grayish-500)" class="opacity-0 transition-opacity duration-500 group-hover:opacity-100"><path d="M274.676 654.71c5.808.456 11.62.204 17.43-.598 18.09-1.56 36.182-7.866 54.271-17.58l-14.523-7.644c-14.013-6.323-28.027-8.964-42.04-9.171-5.12.3-10.115.53-15.138.236-5.023.294-10.018.064-15.138-.236-14.013.207-28.027 2.848-42.04 9.17l-14.523 7.645c18.09 9.714 36.18 16.02 54.27 17.58 5.812.802 11.623 1.054 17.431.599M113.064 472.859c.518-1.547.775-4.547.53-5.644-36.274-162.766-16.755-222.245 65.998-273.5-87.337 57.914-79.265 185.314-53.165 279.467 5.342 46.211 15.405 92.936 32.98 128.954 4.011 8.226 8.47 14.651 19.872 19.11 27.124-8.185 64.82-37.216 80.259-42.806l15.138 1.05 15.138-1.05c15.438 5.59 53.135 34.621 80.26 42.806 11.4-4.459 15.86-10.884 19.872-19.11 17.574-36.018 28.209-82.743 33.55-128.954 26.101-94.153 33.565-221.553-53.77-279.467 82.752 51.255 102.268 110.734 65.994 273.5-.244 1.097 1.66 7.385 1.191 5.967l9.5 28.954c-6.287 29.036-12.161 59.016-21.394 88.053-13.119 38.085-31.48 83.944-58.314 114.812-9.792 15.078-20.009 27.24-37.96 36.198-19.51 9.736-33.12 12.17-53.744 10.294-19.052.619-36.226-.067-54.39-9.664-17.951-8.958-29.738-23.007-39.532-38.085-26.834-30.868-43.623-75.47-56.742-113.555-9.233-29.037-15.107-58.073-21.395-87.11z"/><path d="M413.902 372.038c-39.434-14.126-78.162-23.616-111.852 0-9.346 8.306-4.497 12.53 7.354 10.112l27.274-5.516c24.211-6.123 50.553-5.853 77.224-4.596"/><path d="M247.583 363.764c-9.763 9.132-19.838 11.707-30.419 3.677l-31.257-19.919c-26.146-15.514-41.623 1.691-55.467 23.903 13.104-12.572 27.128-21.202 45.967-9.193l22.064 17.16c24.437 14.242 40.202 6.088 49.112-15.628"/></g></svg>